<svg xmlns="http://www.w3.org/2000/svg" viewBox="0 0 309 61.36"><defs><style>.a{fill:#006dff;}</style></defs><title>Banco Sabadell logo</title><path class="a" d="M379.89,503.62a5.09,5.09,0,0,0-2.42-.39h-3.53v4.93h3.32a5,5,0,0,0,2.72-.45,2.53,2.53,0,0,0,1.08-2.12,2.35,2.35,0,0,0-1.17-2" transform="translate(-357.5 -481.32)"/><path class="a" d="M380.2,498.93a2.26,2.26,0,0,0,.86-1.8,2.06,2.06,0,0,0-1-1.81,6.39,6.39,0,0,0-2.71-.29h-2.86v4.37h3.22a4.11,4.11,0,0,0,2.5-.47" transform="translate(-357.5 -481.32)"/><path class="a" d="M383.72,510.62c-1.45,1.09-3.4,1.09-5.13,1.09h-8.95V491.45h8.95a8.14,8.14,0,0,1,4.58.89,5,5,0,0,1,2.45,4.44,4.42,4.42,0,0,1-3.61,4.37v.06a5,5,0,0,1,4.17,5.05,5.59,5.59,0,0,1-2.45,4.38m-6.23-29.3a20.27,20.27,0,1,0,20,20.27,20.13,20.13,0,0,0-20-20.27" transform="translate(-357.5 -481.32)"/><path d="M440.91,502.5c-3.11-8.77-10.37-11.87-19.25-11.87-4.66,0-9,1-12.74,4.13a15,15,0,0,0-5.48,11.87c0,11.06,8.88,13.71,17.92,15.56,3.1.66,8.88,1.47,8.88,5.68s-4.51,5.45-7.92,5.45c-5.26,0-9.1-1.85-10.59-7.15l-11,2.51c2.3,9.88,11,14,20.51,14,5.11,0,10.66-1,14.73-4.13a16.1,16.1,0,0,0,6.3-12.68,14.06,14.06,0,0,0-6.66-11.94c-3.56-2.36-9.11-3.39-13.25-4.28-2.89-.52-7.33-1.4-7.33-5.08,0-3.91,3.85-4.72,7-4.72,4.51,0,7.26,1.7,8.74,6Zm39.24,39.44a17.9,17.9,0,0,1-.74-5.6V518.87c0-4.49.37-8.62-3.48-11.72-3-2.51-8.07-3.39-11.92-3.39-7.92,0-16.81,2.66-17.92,11.72l10.29,1c0-3.69,3-5.46,6.51-5.46a5.67,5.67,0,0,1,4.45,1.77c1.11,1.4,1,3.31,1,4.94v.88c-4.59.45-10.59.74-14.88,2.36-5,1.84-8.44,5.61-8.44,11.13,0,7.08,5.18,10.62,11.84,10.62,5.63,0,8.88-2.14,12-6.56a22,22,0,0,0,.52,5.82ZM468.31,525.5c0,2.66.08,4.87-1.48,7.23a6.56,6.56,0,0,1-5.48,3.1c-3,0-4.81-2-4.81-4.94,0-5.46,7.62-6.41,11.77-6.86Zm28.14-4.64c0-4,.73-9.66,6-9.66,6,0,6,7.81,6,12s0,11.87-6.15,11.87a5.24,5.24,0,0,1-4.59-2.58c-1.19-1.84-1.26-4.2-1.26-6.26Zm-11,21.08h5.92c.67-2,1.11-4.13,2.44-5.75,2.74,4.5,5.33,6.49,10.74,6.49,11.32,0,15.25-9.66,15.25-19.46,0-8.85-3.26-19.46-14-19.46-4.22,0-7.33,1.77-9.18,5.46h-.29V491.37H485.41Zm71.74,0a17.85,17.85,0,0,1-.74-5.6V518.87c0-4.49.37-8.62-3.49-11.72-3-2.51-8.07-3.39-11.92-3.39-7.92,0-16.81,2.66-17.92,11.72l10.29,1c0-3.69,3-5.46,6.51-5.46a5.67,5.67,0,0,1,4.44,1.77c1.11,1.4,1,3.31,1,4.94v.88c-4.59.45-10.59.74-14.89,2.36-5,1.84-8.44,5.61-8.44,11.13,0,7.08,5.19,10.62,11.85,10.62,5.63,0,8.88-2.14,12-6.56a21.92,21.92,0,0,0,.52,5.82ZM545.31,525.5c0,2.66.07,4.87-1.48,7.23a6.56,6.56,0,0,1-5.48,3.1c-3,0-4.81-2-4.81-4.94,0-5.46,7.62-6.41,11.78-6.86Zm49.23,16.44V491.37H583.66v17.1c-2.37-3.47-5.18-4.72-9.4-4.72-11,0-13.77,11-13.77,19.91,0,8.7,3,19,13.55,19,4.81,0,7.92-2.58,10-6.56h.15v5.82Zm-10.88-15.63a11.84,11.84,0,0,1-1,5.53,5.59,5.59,0,0,1-4.74,3c-5.41,0-6-6.86-6-10.91,0-4.5.23-12.61,6.44-12.61,5,0,5.26,6.19,5.26,9.81Zm50.87-1.26c.07-5.08-.74-10.39-3.85-14.67a17.19,17.19,0,0,0-13.77-6.64c-11.7,0-18.28,8.92-18.28,20s7.33,18.95,18.58,18.95c12.74,0,17.1-11.06,17.1-12.91L624.22,529c0,3.46-3.32,5.9-6.66,5.9-4.74,0-7.26-3.61-7.26-8l.07-1.84Zm-24.21-6.41c.37-4.27,2.22-7.82,7-7.82s6.07,3.76,6.29,7.82Zm29,23.3h10.88V491.37H639.33Zm16.29,0H666.5V491.37H655.62Z" transform="translate(-357.5 -481.32)"/></svg>